<svg xmlns="http://www.w3.org/2000/svg" viewBox="0 0 1200 300" width="1200" height="300" role="img" aria-label="claude-agent-teams">
  <defs>
    <linearGradient id="bgB" x1="0" y1="0" x2="1" y2="1">
      <stop offset="0%" stop-color="#FFF6EE"/>
      <stop offset="100%" stop-color="#FFE3D0"/>
    </linearGradient>
    <filter id="softB" x="-20%" y="-20%" width="140%" height="140%">
      <feGaussianBlur stdDeviation="2"/>
    </filter>
  </defs>

  <rect x="0" y="0" width="1200" height="300" rx="24" fill="url(#bgB)"/>

  <!-- icon group, scaled to 220px tall, anchored at left -->
  <g transform="translate(40, 28)">
    <g transform="scale(0.92)">
      <!-- connections -->
      <g stroke="#E8A37A" stroke-width="2.5" stroke-linecap="round" fill="none" opacity="0.55">
        <path d="M128 92 C 95 130, 95 145, 90 168"/>
        <path d="M128 92 C 161 130, 161 145, 166 168"/>
        <path d="M90 178 C 110 195, 146 195, 166 178"/>
      </g>
      <!-- leader -->
      <circle cx="128" cy="86" r="34" fill="#FF8A5C"/>
      <circle cx="118" cy="82" r="3.6" fill="#3A1B0A"/>
      <circle cx="138" cy="82" r="3.6" fill="#3A1B0A"/>
      <path d="M119 96 Q 128 102 137 96" stroke="#3A1B0A" stroke-width="2.6" stroke-linecap="round" fill="none"/>
      <path d="M114 58 L120 50 L128 56 L136 50 L142 58 Z" fill="#FFD27A" stroke="#C9892F" stroke-width="1.8" stroke-linejoin="round"/>
      <!-- teal teammate -->
      <circle cx="84" cy="178" r="28" fill="#5CC8C8"/>
      <circle cx="76" cy="174" r="3" fill="#0E2A2A"/>
      <circle cx="92" cy="174" r="3" fill="#0E2A2A"/>
      <path d="M77 187 Q 84 192 91 187" stroke="#0E2A2A" stroke-width="2.4" stroke-linecap="round" fill="none"/>
      <!-- pink teammate -->
      <circle cx="172" cy="178" r="28" fill="#FF8AAA"/>
      <circle cx="164" cy="174" r="3" fill="#3A0E1F"/>
      <circle cx="180" cy="174" r="3" fill="#3A0E1F"/>
      <path d="M165 187 Q 172 192 179 187" stroke="#3A0E1F" stroke-width="2.4" stroke-linecap="round" fill="none"/>
      <ellipse cx="128" cy="222" rx="72" ry="6" fill="#E8A37A" opacity="0.25" filter="url(#softB)"/>
    </g>
  </g>

  <!-- title -->
  <g transform="translate(310, 0)" font-family="ui-sans-serif, system-ui, -apple-system, 'Segoe UI', Roboto, sans-serif">
    <text x="0" y="140" font-size="62" font-weight="800" fill="#3A1B0A" letter-spacing="-1.5">claude-agent-teams</text>
    <text x="0" y="180" font-size="22" font-weight="500" fill="#7A4A2A">drop a coordinated team of agents, skills,</text>
    <text x="0" y="208" font-size="22" font-weight="500" fill="#7A4A2A">commands &amp; hooks into Claude Code.</text>
    <g transform="translate(0, 234)">
      <rect x="0" y="0" rx="6" ry="6" width="62" height="22" fill="#FF8A5C"/>
      <text x="31" y="16" text-anchor="middle" font-size="13" font-weight="700" fill="#FFFFFF">CLI</text>
      <rect x="72" y="0" rx="6" ry="6" width="92" height="22" fill="#5CC8C8"/>
      <text x="118" y="16" text-anchor="middle" font-size="13" font-weight="700" fill="#FFFFFF">npx-friendly</text>
      <rect x="174" y="0" rx="6" ry="6" width="108" height="22" fill="#FF8AAA"/>
      <text x="228" y="16" text-anchor="middle" font-size="13" font-weight="700" fill="#FFFFFF">add &amp; remove</text>
    </g>
  </g>
</svg>
